<?xml version="1.0" encoding="UTF-8" standalone="no"?>
<!-- Created with Inkscape (http://www.inkscape.org/) -->

<svg
   version="1.1"
   id="svg1"
   width="758.45312"
   height="753.45331"
   viewBox="0 0 758.45312 753.45331"
   xmlns="http://www.w3.org/2000/svg"
   xmlns:svg="http://www.w3.org/2000/svg">
  <defs
     id="defs1">
    <clipPath
       clipPathUnits="userSpaceOnUse"
       id="clipPath151">
      <path
         d="M 0,1500 H 1500 V 0 H 0 Z"
         id="path151" />
    </clipPath>
    <clipPath
       clipPathUnits="userSpaceOnUse"
       id="clipPath205">
      <path
         d="M 0,1500 H 1500 V 0 H 0 Z"
         transform="translate(-629.46999,-1386.47)"
         id="path205" />
    </clipPath>
  </defs>
  <g
     id="layer-MC0"
     transform="translate(-2100.8401,-131.21333)">
    <path
       id="path150"
       d="M 1500,0 H 0 v 1500 h 1500 z"
       style="fill:none;stroke:#231f20;stroke-width:1;stroke-linecap:butt;stroke-linejoin:miter;stroke-miterlimit:10;stroke-dasharray:none;stroke-opacity:1"
       transform="matrix(1.3333333,0,0,-1.3333333,2020,2000)"
       clip-path="url(#clipPath151)" />
  </g>
  <g
     id="layer-MC1"
     transform="translate(-2100.8401,-131.21333)">
    <path
       id="path204"
       d="m 0,0 v -143.82 c 0,-19.09 -15.47,-34.56 -34.56,-34.56 h -131.51 c -9.31,0 -17.11,-6.45 -19.18,-15.13 -0.35,-1.47 -0.54,-3.01 -0.54,-4.59 v -312.98 c 0,-21.48 -17.41,-38.89 -38.89,-38.89 h -127.33 c -21.48,0 -38.9,17.41 -38.9,38.89 v 119.18 c 0,10.31 4.1,20.21 11.39,27.5 l 122.69,122.69 v -23.6 c 0,-2.88 2.34,-5.22 5.22,-5.22 h 44.03 c 2.88,0 5.22,2.34 5.22,5.22 v 3.79 c 0,2.89 -2.34,5.23 -5.22,5.23 h -27.09 c -2.89,0 -5.22,2.34 -5.22,5.22 v 26.3 l 12.28,12.28 c 12.43,12.42 3.63,33.67 -13.94,33.67 h -290.71 c -20.2,0 -36.58,16.38 -36.58,36.58 v 120.78 c 0,20.2 16.38,36.58 36.58,36.58 h 307.17 c 20.2,0 36.58,-16.38 36.58,-36.58 v -104.32 c 0,-17.57 21.24,-26.37 33.67,-13.94 L -10.69,4.43 C -6.75,8.37 0,5.58 0,0"
       style="fill:#67227b;fill-opacity:1;fill-rule:nonzero;stroke:none"
       transform="matrix(1.3333333,0,0,-1.3333333,2859.2933,151.37333)"
       clip-path="url(#clipPath205)" />
    <path
       style="fill:#67227b;fill-opacity:1;stroke:#67227b;stroke-width:1.0262;stroke-opacity:1"
       d="m 2516.8904,474.336 23.162,-23.16195"
       id="path206" />
    <path
       style="fill:#67227b;fill-opacity:1;stroke:#67227b;stroke-width:0.215319;stroke-opacity:1"
       d="m 2521.5384,511.59149 c -1.1633,-0.42705 -2.6316,-1.53765 -3.2911,-2.48934 -1.3255,-1.91263 -1.273,-1.18585 -1.3405,-18.5522 -0.05,-12.85674 -0.01,-15.87976 0.2162,-15.87976 0.1528,0 5.1706,-4.89354 11.1506,-10.87454 l 10.8728,-10.87454 0.1076,17.39276 0.1077,17.39277 0.7088,1.43953 c 0.7707,1.56503 1.8475,2.63453 3.4606,3.43712 l 0.9983,0.49665 19.9169,0.10766 19.917,0.10766 1.117,0.58893 c 1.4606,0.77014 2.5783,1.92912 3.2735,3.39447 0.5444,1.14743 0.5619,1.31159 0.5619,5.27933 v 4.09509 l -0.7106,1.44374 c -0.8169,1.66002 -2.0249,2.77488 -3.6938,3.40902 -1.0589,0.40235 -1.9916,0.41405 -31.8253,0.39932 -25.6367,-0.0127 -30.8693,-0.0647 -31.5476,-0.31367 z"
       id="path207" />
    <path
       style="fill:#67227b;fill-opacity:1;stroke:#67227b;stroke-width:0.215319;stroke-opacity:1"
       d="m 2468.6338,521.87883 c 83.768,-83.81625 89.9759,-90.07725 91.0447,-91.8243 2.6145,-4.2737 3.6806,-7.84039 3.8485,-12.87445 0.095,-2.84062 0.042,-3.69894 -0.3537,-5.7659 -2.0644,-10.78403 -9.7038,-18.72597 -20.3788,-21.18581 l -2.1409,-0.49333 -132.4748,-0.0599 -132.4749,-0.0599 V 355.9197 322.22424 l 166.1576,0.054 166.1576,0.054 0.2874,1.70165 c 1.4664,8.68137 7.7186,16.19474 16.2784,19.56193 2.9957,1.17843 5.3737,1.6699 8.786,1.81586 4.4603,0.1908 8.2464,-0.56416 12.1756,-2.42788 3.4312,-1.62747 4.5207,-2.5595 13.8612,-11.85796 l 8.9415,-8.90126 h 21.0416 21.0417 v 33.48207 33.48206 h -37.5352 c -41.6879,0 -39.3468,-0.077 -43.7458,1.43967 -8.7316,3.01044 -14.9848,10.15434 -17.1644,19.60906 l -0.4837,2.09804 -0.062,99.74641 -0.062,99.74641 h -116.3218 -116.3219 z m 116.3307,-10.17554 c 1.8525,-0.69313 3.6815,-2.51194 4.1122,-4.08933 0.1278,-0.46779 0.1,-0.45369 -0.2143,0.10766 -0.882,1.57692 -2.8158,3.49512 -3.6931,3.66321 -0.2064,0.0396 -0.3753,0.0867 -0.3753,0.10487 0,0.33269 -56.7608,0.50477 -61.1362,0.18534 -1.7593,-0.12844 -2.7438,-0.29985 -3.1222,-0.54365 -0.8336,-0.53713 -2.5863,-2.29637 -2.5926,-2.60233 0,-0.14803 -0.1136,-0.26915 -0.2456,-0.26915 -0.5667,0 1.1918,2.12147 2.3554,2.84166 1.6755,1.037 0.6157,1.00438 33.1351,1.01968 30.1526,0.0142 30.6387,0.008 31.7766,-0.41796 z m -67.4829,-4.25082 c -0.1265,-0.32567 -0.2806,-1.60951 -0.3424,-2.85297 -0.062,-1.24347 -0.1498,-2.30122 -0.1954,-2.35057 -0.046,-0.0493 -0.082,0.87115 -0.082,2.04553 0,2.14799 0.2787,3.75014 0.6496,3.75014 0.1156,0 0.1029,-0.24951 -0.03,-0.59213 z m 72.1179,-5.86744 c -0.073,-2.80397 -0.1373,-3.2438 -0.6347,-4.3162 -0.7414,-1.59811 -1.6447,-2.58274 -3.0256,-3.29776 -1.1704,-0.60604 -0.9909,-0.3969 0.6286,0.73241 2.1492,1.49866 2.8254,3.52315 2.8878,8.64535 0.018,1.45763 0.076,2.35956 0.1285,2.00428 0.053,-0.35527 0.06,-2.05091 0.015,-3.76808 z m -72.5775,-14.1572 c -0.035,-1.98363 -0.065,-0.36066 -0.065,3.60658 0,3.96725 0.029,5.59022 0.065,3.60659 0.035,-1.98362 0.035,-5.22955 0,-7.21317 z m 66.5413,5.66264 c 0.065,-0.065 -7.2377,-0.0955 -16.2281,-0.0678 -15.2685,0.0471 -15.7287,0.0589 -6.9799,0.17898 10.1742,0.13967 23.0187,0.0781 23.208,-0.11118 z m -38.9277,-0.31937 c -1.4419,-0.4386 -2.7246,-1.31453 -3.6733,-2.50835 -0.3474,-0.43713 -0.6317,-0.69934 -0.6317,-0.58269 0,0.11665 0.4252,0.68174 0.9448,1.25575 0.9281,1.02526 2.6209,2.0012 3.4693,2.00005 0.3358,-4.6e-4 0.3118,-0.0367 -0.1091,-0.16476 z m -4.8796,-5.0203 c -0.1885,-0.99062 -0.3158,-1.04081 -0.2524,-0.0995 0.03,0.43963 0.1284,0.79933 0.2197,0.79933 0.091,0 0.106,-0.3149 0.033,-0.69979 z m -0.3379,-27.18507 -0.056,-8.07553 -8.8281,8.8745 c -4.8554,4.88098 -8.7311,8.80436 -8.6127,8.71862 0.1184,-0.0857 4.0492,-3.98671 8.735,-8.66882 l 8.5198,-8.51294 -0.015,7.0624 c -0.01,3.88433 0.033,11.08349 0.09,15.99814 l 0.105,8.93573 0.059,-8.12828 c 0.033,-4.47056 0.034,-11.76228 0,-16.20382 z m -22.3972,17.70048 c -0.04,-0.9712 -0.072,-0.11862 -0.072,1.89461 2e-4,2.01323 0.033,2.80784 0.072,1.76581 0.039,-1.04204 0.039,-2.68923 -5e-4,-3.66042 z m 0.109,-3.27818 c 0.057,-0.29889 0.02,-0.59529 -0.083,-0.65866 -0.1025,-0.0634 -0.1864,0.18116 -0.1864,0.54343 0,0.79936 0.1278,0.85408 0.269,0.11523 z"
       id="path208" />
  </g>
</svg>
