<?xml version="1.0" encoding="UTF-8" standalone="no"?>
<!-- Created with Inkscape (http://www.inkscape.org/) -->

<svg
   version="1.1"
   id="svg1"
   width="629.42944"
   height="87.440247"
   viewBox="0 0 629.42944 87.440247"
   xmlns="http://www.w3.org/2000/svg"
   xmlns:svg="http://www.w3.org/2000/svg">
  <defs
     id="defs1">
    <clipPath
       clipPathUnits="userSpaceOnUse"
       id="clipPath151">
      <path
         d="M 0,1500 H 1500 V 0 H 0 Z"
         id="path151" />
    </clipPath>
    <clipPath
       clipPathUnits="userSpaceOnUse"
       id="clipPath193">
      <path
         d="M 0,1500 H 1500 V 0 H 0 Z"
         transform="translate(-788.39874,-754.27972)"
         id="path193" />
    </clipPath>
    <clipPath
       clipPathUnits="userSpaceOnUse"
       id="clipPath195">
      <path
         d="M 0,1500 H 1500 V 0 H 0 Z"
         transform="translate(-930.51572,-749.82789)"
         id="path195" />
    </clipPath>
    <clipPath
       clipPathUnits="userSpaceOnUse"
       id="clipPath197">
      <path
         d="M 0,1500 H 1500 V 0 H 0 Z"
         transform="translate(-977.6242,-725.16159)"
         id="path197" />
    </clipPath>
    <clipPath
       clipPathUnits="userSpaceOnUse"
       id="clipPath199">
      <path
         d="M 0,1500 H 1500 V 0 H 0 Z"
         transform="translate(-1014.4134,-754.28392)"
         id="path199" />
    </clipPath>
    <clipPath
       clipPathUnits="userSpaceOnUse"
       id="clipPath201">
      <path
         d="M 0,1500 H 1500 V 0 H 0 Z"
         transform="translate(-1211.1909,-749.82789)"
         id="path201" />
    </clipPath>
    <clipPath
       clipPathUnits="userSpaceOnUse"
       id="clipPath203">
      <path
         d="M 0,1500 H 1500 V 0 H 0 Z"
         transform="translate(-1050.8196,-696.37959)"
         id="path203" />
    </clipPath>
  </defs>
  <g
     id="layer-MC0"
     transform="translate(-3005.4917,-994.28815)">
    <path
       id="path150"
       d="M 1500,0 H 0 v 1500 h 1500 z"
       style="fill:none;stroke:#231f20;stroke-width:1;stroke-linecap:butt;stroke-linejoin:miter;stroke-miterlimit:10;stroke-dasharray:none;stroke-opacity:1"
       transform="matrix(1.3333333,0,0,-1.3333333,2020,2000)"
       clip-path="url(#clipPath151)" />
  </g>
  <g
     id="layer-MC1"
     transform="translate(-3005.4917,-994.28815)">
    <path
       id="path192"
       d="m 0,0 h -44.835 c -2.452,0 -4.445,-1.992 -4.445,-4.453 V -7.68 c 0,-2.452 1.993,-4.444 4.445,-4.444 h 10.762 c 2.46,0 4.444,-1.992 4.444,-4.444 v -44.563 c 0,-2.452 1.992,-4.445 4.453,-4.445 h 5.525 c 2.452,0 4.445,1.993 4.445,4.445 v 44.563 c 0,2.452 1.992,4.444 4.444,4.444 H 0 c 2.452,0 4.444,1.992 4.444,4.444 v 3.227 C 4.444,-1.992 2.452,0 0,0"
       style="fill:#ffffff;fill-opacity:1;fill-rule:nonzero;stroke:none"
       transform="matrix(1.3333333,0,0,-1.3333333,3071.1983,994.29373)"
       clip-path="url(#clipPath193)" />
    <path
       id="path194"
       d="m 0,0 v -56.678 c 0,-2.452 -1.992,-4.445 -4.453,-4.445 h -4.606 c -2.452,0 -4.444,1.993 -4.444,4.445 v 42.025 h -0.188 l -15.036,-43.481 c -0.621,-1.788 -2.307,-2.989 -4.197,-2.989 h -4.793 c -1.891,0 -3.576,1.192 -4.198,2.98 l -15.027,43.031 h -0.188 v -41.566 c 0,-2.452 -1.992,-4.445 -4.444,-4.445 h -64.12 c -2.452,0 -4.444,1.993 -4.444,4.445 V 0 c 0,2.461 1.992,4.453 4.444,4.453 h 40.153 c 2.452,0 4.444,-1.992 4.444,-4.453 v -3.227 c 0,-2.452 -1.992,-4.444 -4.444,-4.444 h -25.73 c -2.46,0 -4.452,-1.992 -4.452,-4.445 v -5.159 c 0,-2.461 1.992,-4.444 4.452,-4.444 h 22.878 c 2.46,0 4.444,-1.993 4.444,-4.453 v -2.308 c 0,-2.46 -1.984,-4.452 -4.444,-4.452 h -22.878 c -2.46,0 -4.452,-1.984 -4.452,-4.445 v -7.177 c 0,-2.452 1.992,-4.445 4.452,-4.445 h 40.638 V 0 c 0,2.461 1.992,4.453 4.453,4.453 h 12.66 c 1.908,0 3.602,-1.218 4.215,-3.014 l 14.312,-42.085 h 0.179 l 13.52,42.008 c 0.596,1.839 2.299,3.091 4.232,3.091 H -4.453 C -1.992,4.453 0,2.461 0,0"
       style="fill:#ffffff;fill-opacity:1;fill-rule:nonzero;stroke:none"
       transform="matrix(1.3333333,0,0,-1.3333333,3260.6876,1000.2295)"
       clip-path="url(#clipPath195)" />
    <path
       id="path196"
       d="m 0,0 c -1.958,-1.158 -4.896,-1.745 -8.812,-1.745 h -6.76 c -2.452,0 -4.445,1.992 -4.445,4.452 v 10.754 c 0,2.46 1.993,4.453 4.445,4.453 h 6.76 c 3.916,0 6.854,-0.588 8.812,-1.746 C 2.571,14.576 3.857,11.877 3.857,8.088 3.857,4.291 2.571,1.592 0,0 m 12.584,22.596 c -3.985,4.343 -9.8,6.522 -17.446,6.522 h -25.133 c -2.452,0 -4.445,-1.992 -4.445,-4.453 v -56.678 c 0,-2.452 1.993,-4.444 4.445,-4.444 h 5.526 c 2.46,0 4.452,1.992 4.452,4.444 v 14.619 c 0,2.46 1.993,4.444 4.445,4.444 h 10.71 c 7.646,0 13.461,2.18 17.446,6.522 3.491,3.738 5.236,8.574 5.236,14.516 0,5.935 -1.745,10.771 -5.236,14.508"
       style="fill:#ffffff;fill-opacity:1;fill-rule:nonzero;stroke:none"
       transform="matrix(1.3333333,0,0,-1.3333333,3323.4989,1033.1179)"
       clip-path="url(#clipPath197)" />
    <path
       id="path198"
       d="M 0,0 H -5.526 C -7.978,0 -9.97,-1.992 -9.97,-4.453 V -41.038 L 4.453,-26.615 V -4.453 C 4.453,-1.992 2.461,0 0,0"
       style="fill:#ffffff;fill-opacity:1;fill-rule:nonzero;stroke:none"
       transform="matrix(1.3333333,0,0,-1.3333333,3372.5512,994.28813)"
       clip-path="url(#clipPath199)" />
    <path
       id="path200"
       d="m 0,0 v -3.227 c 0,-2.452 -1.83,-4.444 -4.078,-4.444 h -9.868 c -2.248,0 -4.078,-1.992 -4.078,-4.445 v -44.562 c 0,-2.452 -1.822,-4.445 -4.07,-4.445 h -5.074 c -2.248,0 -4.079,1.993 -4.079,4.445 v 44.562 c 0,1.814 -1.004,3.381 -2.443,4.07 h -33.35 c -1.439,-0.681 -2.444,-2.247 -2.444,-4.07 v -44.562 c 0,-2.452 -1.821,-4.445 -4.069,-4.445 h -5.074 c -2.257,0 -4.07,1.993 -4.07,4.445 v 44.562 c 0,1.823 -1.005,3.389 -2.452,4.07 h -49.774 c -1.438,-0.689 -2.443,-2.256 -2.443,-4.07 v -5.159 c 0,-2.461 1.83,-4.444 4.078,-4.444 h 20.987 c 2.248,0 4.078,-1.993 4.078,-4.453 v -2.308 c 0,-2.46 -1.83,-4.452 -4.078,-4.452 h -20.987 c -2.248,0 -4.078,-1.984 -4.078,-4.445 v -7.177 c 0,-2.452 1.83,-4.445 4.078,-4.445 h 24.274 c 2.248,0 4.078,-1.992 4.078,-4.452 v -3.227 c 0,-2.452 -1.83,-4.445 -4.078,-4.445 h -37.488 c -2.256,0 -4.087,1.993 -4.087,4.445 V 0 c 0,2.461 1.831,4.453 4.087,4.453 H -4.078 C -1.83,4.453 0,2.461 0,0"
       style="fill:#ffffff;fill-opacity:1;fill-rule:nonzero;stroke:none"
       transform="matrix(1.3333333,0,0,-1.3333333,3634.9212,1000.2295)"
       clip-path="url(#clipPath201)" />
    <path
       id="path202"
       d="m 0,0 v -3.227 c 0,-2.452 -1.992,-4.444 -4.444,-4.444 h -37.488 c -2.452,0 -4.444,1.992 -4.444,4.444 v 20.093 l 14.423,14.423 V 8.897 c 0,-2.452 1.983,-4.444 4.444,-4.444 H -4.444 C -1.992,4.453 0,2.461 0,0"
       style="fill:#ffffff;fill-opacity:1;fill-rule:nonzero;stroke:none"
       transform="matrix(1.3333333,0,0,-1.3333333,3421.0928,1071.4939)"
       clip-path="url(#clipPath203)" />
  </g>
</svg>
