<svg width="350" height="106" viewBox="0 0 350 106" fill="none" xmlns="http://www.w3.org/2000/svg">
<path d="M0.0839844 29.2415C0.0839844 25.8996 1.47755 22.7091 3.92919 20.4381L21.5491 4.11625C23.7675 2.06128 26.68 0.919617 29.7039 0.919617H337.084C343.711 0.919617 349.084 6.2922 349.084 12.9196V93.9196C349.084 100.547 343.711 105.92 337.084 105.92H12.084C5.45657 105.92 0.0839844 100.547 0.0839844 93.9196V29.2415Z" fill="#450156"/>
<path d="M85.7 65V45.82L78.7 46.17V40.22H99.175V46.17L92 45.82V59.4L92.385 62.9L92 65H85.7ZM102.675 65L101.975 62.9L102.675 59.4V40.22H120L121.75 41.27L119.44 46.17L116.29 45.82H108.975V49.67H118.39V55.095H114.26L108.975 54.745V59.4H119.44L123.605 62.76L121.54 65H102.675ZM126.772 65V45.855L126.072 42.355L126.807 40.255H133.492L140.352 53.555H141.052L146.722 40.255H153.687L154.037 42.355L153.687 45.715V65H147.352L147.457 62.025V52.26H147.072L145.672 55.62L142.522 61.5H138.322L133.492 52.26H133.142V55.095L133.492 65H126.772ZM158.935 65V45.855L158.235 42.32L158.935 40.22H170.135C171.838 40.22 173.366 40.4883 174.72 41.025C176.096 41.5383 177.181 42.425 177.975 43.685C178.791 44.9217 179.2 46.6367 179.2 48.83C179.2 51.0233 178.768 52.7617 177.905 54.045C177.041 55.305 175.84 56.2033 174.3 56.74C172.783 57.2767 171.045 57.545 169.085 57.545H165.235V59.365L165.585 62.865L165.235 65H158.935ZM165.235 52.05H168.665C169.878 52.05 170.846 51.8283 171.57 51.385C172.293 50.9183 172.655 50.0667 172.655 48.83C172.655 47.9667 172.48 47.325 172.13 46.905C171.78 46.4617 171.29 46.17 170.66 46.03C170.053 45.89 169.341 45.82 168.525 45.82H164.885L165.235 52.05ZM183.749 65L183.049 62.9L183.749 59.4V40.22H190.049V54.605L189.699 59.4H190.399L196.664 59.05L199.149 58.7L202.229 62.76L200.514 65H183.749ZM205.385 65L204.685 62.9L205.385 59.4V40.22H222.71L224.46 41.27L222.15 46.17L219 45.82H211.685V49.67H221.1V55.095H216.97L211.685 54.745V59.4H222.15L226.315 62.76L224.25 65H205.385ZM234.382 65V45.82L227.382 46.17V40.22H247.857V46.17L240.682 45.82V59.4L241.067 62.9L240.682 65H234.382ZM256.257 65V45.82L249.257 46.17V40.22H269.732V46.17L262.557 45.82V59.4L262.942 62.9L262.557 65H256.257Z" fill="white"/>
<path d="M12.5 13L25.084 0.919617V12.9196C25.084 19.547 19.7114 24.9196 13.084 24.9196H0.0839844L12.5 13Z" fill="#6D1384"/>
</svg>
