<?xml version="1.0" encoding="UTF-8" standalone="no"?>
<!-- Created with Inkscape (http://www.inkscape.org/) -->

<svg
   version="1.1"
   id="svg1"
   width="758.45312"
   height="753.45331"
   viewBox="0 0 758.45312 753.45331"
   xmlns="http://www.w3.org/2000/svg"
   xmlns:svg="http://www.w3.org/2000/svg">
  <defs
     id="defs1">
    <clipPath
       clipPathUnits="userSpaceOnUse"
       id="clipPath151">
      <path
         d="M 0,1500 H 1500 V 0 H 0 Z"
         id="path151" />
    </clipPath>
    <clipPath
       clipPathUnits="userSpaceOnUse"
       id="clipPath183">
      <path
         d="M 0,1500 H 1500 V 0 H 0 Z"
         transform="translate(-118.89008,-1192.9551)"
         id="path183" />
    </clipPath>
    <clipPath
       clipPathUnits="userSpaceOnUse"
       id="clipPath185">
      <path
         d="M 0,1500 H 1500 V 0 H 0 Z"
         transform="translate(-285.81008,-1187.7263)"
         id="path185" />
    </clipPath>
    <clipPath
       clipPathUnits="userSpaceOnUse"
       id="clipPath187">
      <path
         d="M 0,1500 H 1500 V 0 H 0 Z"
         transform="translate(-341.14013,-1158.755)"
         id="path187" />
    </clipPath>
    <clipPath
       clipPathUnits="userSpaceOnUse"
       id="clipPath189">
      <path
         d="M 0,1500 H 1500 V 0 H 0 Z"
         transform="translate(-384.35003,-1192.96)"
         id="path189" />
    </clipPath>
    <clipPath
       clipPathUnits="userSpaceOnUse"
       id="clipPath191">
      <path
         d="M 0,1500 H 1500 V 0 H 0 Z"
         transform="translate(-629.46999,-1187.7263)"
         id="path191" />
    </clipPath>
    <clipPath
       clipPathUnits="userSpaceOnUse"
       id="clipPath205">
      <path
         d="M 0,1500 H 1500 V 0 H 0 Z"
         transform="translate(-629.46999,-1386.47)"
         id="path205" />
    </clipPath>
  </defs>
  <g
     id="layer-MC0"
     transform="translate(-2100.8401,-131.21333)">
    <path
       id="path150"
       d="M 1500,0 H 0 v 1500 h 1500 z"
       style="fill:none;stroke:#231f20;stroke-width:1;stroke-linecap:butt;stroke-linejoin:miter;stroke-miterlimit:10;stroke-dasharray:none;stroke-opacity:1"
       transform="matrix(1.3333333,0,0,-1.3333333,2020,2000)"
       clip-path="url(#clipPath151)" />
  </g>
  <g
     id="layer-MC1"
     transform="translate(-2100.8401,-131.21333)">
    <path
       id="path182"
       d="m 0,0 h -52.66 c -2.88,0 -5.22,-2.34 -5.22,-5.23 v -3.79 c 0,-2.88 2.34,-5.22 5.22,-5.22 h 12.64 c 2.89,0 5.22,-2.34 5.22,-5.22 V -71.8 c 0,-2.88 2.34,-5.22 5.23,-5.22 h 6.49 c 2.88,0 5.22,2.34 5.22,5.22 v 52.34 c 0,2.88 2.34,5.22 5.22,5.22 H 0 c 2.88,0 5.22,2.34 5.22,5.22 v 3.79 C 5.22,-2.34 2.88,0 0,0"
       style="fill:#ffffff;fill-opacity:1;fill-rule:nonzero;stroke:none"
       transform="matrix(1.3333333,0,0,-1.3333333,2178.5201,409.3932)"
       clip-path="url(#clipPath183)" />
    <path
       id="path184"
       d="m 0,0 v -66.57 c 0,-2.88 -2.34,-5.22 -5.23,-5.22 h -5.41 c -2.88,0 -5.22,2.34 -5.22,5.22 v 49.36 h -0.22 l -17.66,-51.07 c -0.73,-2.1 -2.71,-3.51 -4.93,-3.51 h -5.63 c -2.22,0 -4.2,1.4 -4.93,3.5 l -17.65,50.54 h -0.22 v -48.82 c 0,-2.88 -2.34,-5.22 -5.22,-5.22 h -75.31 c -2.88,0 -5.22,2.34 -5.22,5.22 V 0 c 0,2.89 2.34,5.23 5.22,5.23 h 47.16 c 2.88,0 5.22,-2.34 5.22,-5.23 v -3.79 c 0,-2.88 -2.34,-5.22 -5.22,-5.22 h -30.22 c -2.89,0 -5.23,-2.34 -5.23,-5.22 v -6.06 c 0,-2.89 2.34,-5.22 5.23,-5.22 h 26.87 c 2.89,0 5.22,-2.34 5.22,-5.23 v -2.71 c 0,-2.89 -2.33,-5.23 -5.22,-5.23 h -26.87 c -2.89,0 -5.23,-2.33 -5.23,-5.22 v -8.43 c 0,-2.88 2.34,-5.22 5.23,-5.22 h 47.73 V 0 c 0,2.89 2.34,5.23 5.23,5.23 h 14.87 c 2.24,0 4.23,-1.43 4.95,-3.54 l 16.81,-49.43 h 0.21 L -25.01,1.6 c 0.7,2.16 2.7,3.63 4.97,3.63 H -5.23 C -2.34,5.23 0,2.89 0,0"
       style="fill:#ffffff;fill-opacity:1;fill-rule:nonzero;stroke:none"
       transform="matrix(1.3333333,0,0,-1.3333333,2401.0801,416.36493)"
       clip-path="url(#clipPath185)" />
    <path
       id="path186"
       d="m 0,0 c -2.3,-1.36 -5.75,-2.05 -10.35,-2.05 h -7.94 c -2.88,0 -5.22,2.34 -5.22,5.23 v 12.63 c 0,2.89 2.34,5.23 5.22,5.23 h 7.94 C -5.75,21.04 -2.3,20.35 0,18.99 3.02,17.12 4.53,13.95 4.53,9.5 4.53,5.04 3.02,1.87 0,0 M 14.78,26.54 C 10.1,31.64 3.27,34.2 -5.71,34.2 h -29.52 c -2.88,0 -5.22,-2.34 -5.22,-5.23 V -37.6 c 0,-2.88 2.34,-5.22 5.22,-5.22 h 6.49 c 2.89,0 5.23,2.34 5.23,5.22 v 17.17 c 0,2.89 2.34,5.22 5.22,5.22 h 12.58 c 8.98,0 15.81,2.56 20.49,7.66 4.1,4.39 6.15,10.07 6.15,17.05 0,6.97 -2.05,12.65 -6.15,17.04"
       style="fill:#ffffff;fill-opacity:1;fill-rule:nonzero;stroke:none"
       transform="matrix(1.3333333,0,0,-1.3333333,2474.8535,454.99333)"
       clip-path="url(#clipPath187)" />
    <path
       id="path188"
       d="m 0,0 h -6.49 c -2.88,0 -5.22,-2.34 -5.22,-5.23 V -48.2 L 5.23,-31.26 V -5.23 C 5.23,-2.34 2.89,0 0,0"
       style="fill:#ffffff;fill-opacity:1;fill-rule:nonzero;stroke:none"
       transform="matrix(1.3333333,0,0,-1.3333333,2532.4667,409.38667)"
       clip-path="url(#clipPath189)" />
    <path
       id="path190"
       d="m 0,0 v -3.79 c 0,-2.88 -2.15,-5.22 -4.79,-5.22 h -11.59 c -2.64,0 -4.79,-2.34 -4.79,-5.22 v -52.34 c 0,-2.88 -2.14,-5.22 -4.78,-5.22 h -5.96 c -2.64,0 -4.79,2.34 -4.79,5.22 v 52.34 c 0,2.13 -1.18,3.97 -2.87,4.78 h -39.17 c -1.69,-0.8 -2.87,-2.64 -2.87,-4.78 v -52.34 c 0,-2.88 -2.14,-5.22 -4.78,-5.22 h -5.96 c -2.65,0 -4.78,2.34 -4.78,5.22 v 52.34 c 0,2.14 -1.18,3.98 -2.88,4.78 h -58.46 c -1.69,-0.81 -2.87,-2.65 -2.87,-4.78 v -6.06 c 0,-2.89 2.15,-5.22 4.79,-5.22 h 24.65 c 2.64,0 4.79,-2.34 4.79,-5.23 v -2.71 c 0,-2.89 -2.15,-5.23 -4.79,-5.23 h -24.65 c -2.64,0 -4.79,-2.33 -4.79,-5.22 v -8.43 c 0,-2.88 2.15,-5.22 4.79,-5.22 h 28.51 c 2.64,0 4.79,-2.34 4.79,-5.23 v -3.79 c 0,-2.88 -2.15,-5.22 -4.79,-5.22 h -44.03 c -2.65,0 -4.8,2.34 -4.8,5.22 V 0 c 0,2.89 2.15,5.23 4.8,5.23 H -4.79 C -2.15,5.23 0,2.89 0,0"
       style="fill:#ffffff;fill-opacity:1;fill-rule:nonzero;stroke:none"
       transform="matrix(1.3333333,0,0,-1.3333333,2859.2933,416.36493)"
       clip-path="url(#clipPath191)" />
    <path
       id="path204"
       d="m 0,0 v -143.82 c 0,-19.09 -15.47,-34.56 -34.56,-34.56 h -131.51 c -9.31,0 -17.11,-6.45 -19.18,-15.13 -0.35,-1.47 -0.54,-3.01 -0.54,-4.59 v -312.98 c 0,-21.48 -17.41,-38.89 -38.89,-38.89 h -127.33 c -21.48,0 -38.9,17.41 -38.9,38.89 v 119.18 c 0,10.31 4.1,20.21 11.39,27.5 l 122.69,122.69 v -23.6 c 0,-2.88 2.34,-5.22 5.22,-5.22 h 44.03 c 2.88,0 5.22,2.34 5.22,5.22 v 3.79 c 0,2.89 -2.34,5.23 -5.22,5.23 h -27.09 c -2.89,0 -5.22,2.34 -5.22,5.22 v 26.3 l 12.28,12.28 c 12.43,12.42 3.63,33.67 -13.94,33.67 h -290.71 c -20.2,0 -36.58,16.38 -36.58,36.58 v 120.78 c 0,20.2 16.38,36.58 36.58,36.58 h 307.17 c 20.2,0 36.58,-16.38 36.58,-36.58 v -104.32 c 0,-17.57 21.24,-26.37 33.67,-13.94 L -10.69,4.43 C -6.75,8.37 0,5.58 0,0"
       style="display:inline;fill:#67227b;fill-opacity:1;fill-rule:nonzero;stroke:none"
       transform="matrix(1.3333333,0,0,-1.3333333,2859.2933,151.37333)"
       clip-path="url(#clipPath205)" />
  </g>
</svg>
